<svg viewBox="0 0 373 283" height="283" width="373" style="width: 373px; height: 283px; position: absolute; top: 50%; left: 50%; transform: translate(-50%, -50%) scale(0.622792); z-index: 0; cursor: pointer;"><defs id="SvgjsDefs3650"></defs><g id="SvgjsG3651" featurekey="rootContainer" transform="matrix(1,0,0,1,0,0)" fill="#ffffff"><rect y="0" height="1" width="1" opacity="0"></rect><rect y="278" width="373" height="5"></rect></g><g id="SvgjsG3652" featurekey="JiLV9t-0" transform="matrix(1.8410502510561066,0,0,1.8410502510561066,94.93926247168908,-2.917980455337009)" fill="#94d104"><g xmlns="http://www.w3.org/2000/svg"><g><path d="M84.88,36.3c4.414,0,7.995-3.581,7.995-7.995c0-4.418-3.581-7.999-7.995-7.999c-4.418,0-7.999,3.581-7.999,7.999    C76.881,32.719,80.462,36.3,84.88,36.3z"></path><path d="M92.875,46.715H81.158l-3.539-8.513c-0.149-0.362-0.354-0.701-0.607-0.999l-0.237-0.28l-7.917-9.396l-6.983-8.285    c-0.728-0.864-1.799-1.362-2.93-1.362H43.809c-2.117,0-3.833,1.715-3.833,3.834c0,2.115,1.716,3.831,3.833,3.831h13.352    l4.233,5.025L44.659,46.387c-0.389,0.264-0.756,0.567-1.091,0.92c-2.476,2.617-2.363,6.749,0.253,9.224l12.976,12.279    l-16.841,4.037c-2.086,0.499-3.372,2.597-2.871,4.683c0.5,2.086,2.595,3.372,4.682,2.87l23.783-5.698    c0.444-0.108,0.888-0.298,1.285-0.571c1.762-1.208,2.211-3.616,1.004-5.378l-0.241-0.352l-9.823-14.328l14.042-9.858l3.244,7.806    c0.596,1.431,1.99,2.362,3.541,2.362h14.273c2.117,0,3.832-1.717,3.832-3.833S94.992,46.715,92.875,46.715z"></path><path d="M40.578,59.957c-2.019-1.912-3.226-4.449-3.459-7.198L11.484,74.757c-1.676,1.444-1.956,3.972-0.585,5.74    c1.416,1.829,4.045,2.163,5.873,0.747l25.47-19.711L40.578,59.957z"></path></g><path d="M46.06,34.787c0,1.338-1.083,2.422-2.422,2.422H23.884c-1.339,0-2.423-1.084-2.423-2.422l0,0   c0-1.34,1.084-2.424,2.423-2.424h19.753C44.977,32.363,46.06,33.447,46.06,34.787L46.06,34.787z"></path><path d="M36.976,43.871c0,1.338-1.084,2.422-2.423,2.422H14.8c-1.339,0-2.423-1.084-2.423-2.422l0,0   c0-1.34,1.084-2.423,2.423-2.423h19.753C35.892,41.447,36.976,42.531,36.976,43.871L36.976,43.871z"></path><path d="M27.892,52.956c0,1.338-1.084,2.422-2.423,2.422H5.715c-1.338,0-2.423-1.084-2.423-2.422l0,0   c0-1.341,1.084-2.425,2.423-2.425h19.753C26.807,50.531,27.892,51.615,27.892,52.956L27.892,52.956z"></path></g></g><g id="SvgjsG3653" featurekey="Yxc9Rz-0" transform="matrix(2.5517898440152598,0,0,2.5517898440152598,7.74217938228432,164.3837573151917)" fill="#ffffff"><path d="M4.458 11.0046 c-0.21816 0.12059 -0.44118 0.32306 -0.44118 0.90966 c0 0.45724 0.14779 0.70718 0.52734 0.89108 c0.38386 0.18598 0.81196 0.19957 0.83354 0.2001 l8.5334 0.03336 c1.4828 0 3.6956 0.9158 3.6956 3.4388 s-2.0564 3.4388 -3.4388 3.4388 l-12.499 0 l0 -2.3477 l12.488 0 c0.1024 -0.0035352 0.40818 -0.04211 0.66022 -0.18152 c0.21828 -0.12072 0.44128 -0.32318 0.44128 -0.90964 c0 -0.45724 -0.14779 -0.70718 -0.52734 -0.89108 c-0.3827 -0.18547 -0.81038 -0.19947 -0.8343 -0.20012 l-8.5278 -0.03793 l0 0.0045703 c-1.4875 0 -3.7004 -0.9158 -3.7004 -3.4388 s2.0564 -3.4388 3.4388 -3.4388 l12.499 0 l0 2.3477 l-12.488 0 c-0.10229 0.0035352 -0.40834 0.04211 -0.6605 0.18152 z M33.224000000000004 8.475 c1.4873 0 3.7 0.91594 3.7 3.4388 s-2.0564 3.4388 -3.4388 3.4388 l-10.172 0 l-0.016738 4.5342 l-2.3476 -0.0087696 l0.037794 -10.227 l0 -1.1757 l0.0043164 0 l0 -0.0043164 l1.1738 0.0043164 l11.059 0 z M34.136 12.823599999999999 c0.21816 -0.12072 0.4413 -0.32304 0.44118 -0.90952 c0 -0.47164 -0.15957 -0.72696 -0.56948 -0.91072 c-0.3725 -0.16701 -0.77926 -0.18049 -0.78304 -0.18049 l-9.8895 0 l0 2.1822 l10.141 0 c0.1024 -0.0035352 0.40818 -0.04211 0.66022 -0.18152 z M55.205 9.649 c0.91776 0.9099 0.9102 2.226 0.89856 4.2182 c-0.00091796 0.14832 -0.0016992 0.302 -0.0023438 0.46118 c-0.0044532 1.1823 -0.0075976 2.0366 -0.13172 2.757 c-0.10568 0.6142 -0.34974 1.4995 -1.2436 2.0954 c-1.1321 0.75466 -2.8232 0.77168 -6.5282 0.8087 c-0.57862 0.0057618 -1.1122 0.010078 -1.6046 0.010078 c-2.9354 0 -4.411 -0.15537 -5.3538 -1.0922 c-0.98198 -0.9757 -0.97648 -2.4126 -0.96838 -4.5876 c0.0090234 -2.4268 0.014512 -3.8916 1.2447 -4.801 c1.0614 -0.7845 2.6028 -0.80516 5.9798 -0.85054 l0.67396 -0.0092774 c4.2088 -0.060156 5.9508 -0.085136 7.0354 0.99024 z M53.771 13.854199999999999 c0.006543 -1.1448 0.013457 -2.3288 -0.20864 -2.5488 c-0.27556 -0.27322 -1.5123 -0.33638 -3.1584 -0.33638 c-0.67736 0 -1.4242 0.010723 -2.2018 0.021836 l-0.67606 0.0092774 c-2.4194 0.032442 -4.1674 0.055976 -4.625 0.39406 c-0.2888 0.21346 -0.2935 1.4744 -0.29898 2.9346 c-0.0050976 1.3559 -0.0099414 2.6366 0.28016 2.9248 c0.4554 0.45254 2.9138 0.42782 5.2914 0.40428 c2.7302 -0.027206 4.7028 -0.046954 5.258 -0.4171 c0.32686 -0.2179 0.33104 -1.3516 0.33692 -2.9208 c0.00052734 -0.16074 0.0014453 -0.316 0.0023632 -0.46588 z M73.777 17.557 l1.162 -0.017422 l0.034786 2.3242 l-1.1621 0.017402 c-0.18088 0.002754 -0.38542 0.0058984 -0.6087 0.0058984 c-1.614 0 -4.2026 -0.16008 -5.8378 -1.7712 c-0.72798 -0.71726 -1.1865 -1.629 -1.3698 -2.72 l-4.2054 0 l-0.016602 4.4896 l-2.3246 -0.0086328 l0.037402 -10.127 l0 -1.1635 l0.0043164 0 l0 -0.0043164 l1.1612 0.0043164 l10.951 0 c1.4728 0 3.6638 0.90678 3.6638 3.4048 c0 2.4982 -2.0362 3.405 -3.4048 3.405 l-3.4826 0 c0.12543 0.4252 0.32842 0.77924 0.61734 1.064 c1.1685 1.151 3.608 1.1146 4.7804 1.0969 z M61.8114 13.0714 l10.041 -0.000019531 c0.10148 -0.0035352 0.40426 -0.041718 0.6538 -0.17971 c0.21608 -0.11955 0.43686 -0.32006 0.43686 -0.90076 c0 -0.46692 -0.15799 -0.71972 -0.56382 -0.90166 c-0.36882 -0.16531 -0.77152 -0.17865 -0.77532 -0.17865 l-9.7922 0 l0 2.1608 z M78.62920000000001 8.475 l15.938 0 l0 2.3477 l-6.7954 0 l0 9.0932 l-2.3476 0 l0 -9.0932 l-6.7946 0 l0 -2.3477 z M113.867 10.9648 l-13.59 0 l0 2.1824 l9.0599 0 l0 2.3476 l-9.0599 0 l0 4.5299 l-2.3477 0 l0 -11.407 l15.938 0 l0 2.3476 z M119.5338 20.02461 l-2.3246 0 l0 -11.295 l2.3246 0 l0 11.295 z M122.8892 8.475 l15.938 0 l0 2.3477 l-6.7954 0 l0 9.0932 l-2.3476 0 l0 -9.0932 l-6.7946 0 l0 -2.3477 z"></path></g><g id="SvgjsG3654" featurekey="zc75Em-0" transform="matrix(0.776726927712443,0,0,0.776726927712443,3.703708383168099,230.42033678492948)" fill="#94d104"><path d="M17.933 18.3323 l-1.2821 1.9477 l-1.2593 -0.82894 c-1.1313 0.40022 -2.8088 0.41734 -5.7944 0.44716 c-0.57876 0.0057618 -1.1124 0.010078 -1.6047 0.010078 c-2.9354 0 -4.411 -0.15537 -5.3538 -1.0922 c-0.98186 -0.9757 -0.97648 -2.4126 -0.96838 -4.5876 c0.0090234 -2.427 0.014648 -3.8916 1.2449 -4.801 c1.0612 -0.7845 2.6026 -0.80516 5.9796 -0.85054 l0.67396 -0.0092774 c4.209 -0.060156 5.951 -0.085 7.0356 0.99038 c0.91764 0.90978 0.91006 2.226 0.89856 4.2182 c-0.00091796 0.14832 -0.0016992 0.302 -0.0023438 0.46118 c-0.0044532 1.1823 -0.0075976 2.0366 -0.13172 2.757 c-0.041856 0.24262 -0.10607 0.52762 -0.22248 0.82034 z M9.574 17.5664 c1.0947 -0.010859 2.0672 -0.020644 2.8756 -0.052168 l-2.6542 -1.7474 l1.2823 -1.9477 l4.0148 2.6432 c0.070098 -0.52422 0.072968 -1.3022 0.076504 -2.2336 c0.00052734 -0.16088 0.0014453 -0.31614 0.0023632 -0.46588 c0.006543 -1.1449 0.01334 -2.3288 -0.20862 -2.5488 c-0.27558 -0.27322 -1.5123 -0.33638 -3.1584 -0.33638 c-0.67736 0 -1.424 0.010723 -2.2018 0.021836 l-0.67606 0.0092774 c-2.4194 0.032442 -4.1674 0.055976 -4.625 0.39406 c-0.2888 0.21346 -0.2935 1.4746 -0.29898 2.9346 c-0.0050976 1.3559 -0.0099414 2.6366 0.28016 2.9248 c0.45554 0.45254 2.914 0.42782 5.2914 0.40428 z M51.687 8.487 l0.041758 5.7 c0.017129 1.2612 -0.49178 2.4856 -1.4332 3.448 c-0.9982 1.0203 -2.9408 2.242 -6.5268 2.2684 c-0.034786 0.0002539 -0.069706 0.00039062 -0.10424 0.00039062 c-2.7146 0 -4.9816 -0.77976 -6.3926 -2.201 c-0.96994 -0.97702 -1.4953 -2.2218 -1.4805 -3.5064 l-0.041992 -5.6918 l2.3476 -0.017402 l0.042246 5.7166 l-0.00013672 0.012813 c-0.0096876 0.66232 0.26668 1.2957 0.799 1.832 c0.98014 0.98734 2.6886 1.5215 4.8136 1.507 c2.1676 -0.015957 3.8956 -0.57078 4.866 -1.5626 c0.50916 -0.5204 0.77336 -1.1346 0.76394 -1.7765 l0 -0.0083789 l-0.04211 -5.7036 z M85.487 10.9512 l-13.59 0.000019531 l0 2.1863 l9.0642 0.03375 l-0.0086328 2.3478 l-9.0556 -0.03375 l0 2.1782 l13.59 0 l0 2.3477 l-15.938 0 l0 -11.407 l15.938 0 l0 2.3476 z M117.617 17.557 l1.162 -0.017422 l0.034786 2.3242 l-1.1621 0.017402 c-0.18088 0.002754 -0.38542 0.0058984 -0.6087 0.0058984 c-1.614 0 -4.2026 -0.16008 -5.8378 -1.7712 c-0.72798 -0.71726 -1.1865 -1.629 -1.3698 -2.72 l-4.2054 0 l-0.016602 4.4896 l-2.3246 -0.0086328 l0.037402 -10.127 l0 -1.1635 l0.0043164 0 l0 -0.0043164 l1.1612 0.0043164 l10.951 0 c1.4728 0 3.6638 0.90678 3.6638 3.4048 c0 2.4982 -2.0362 3.405 -3.4048 3.405 l-3.4826 0 c0.12543 0.4252 0.32842 0.77924 0.61734 1.064 c1.1685 1.151 3.608 1.1146 4.7804 1.0969 z M105.65140000000001 13.0714 l10.041 -0.000019531 c0.10148 -0.0035352 0.40426 -0.041718 0.6538 -0.17971 c0.21608 -0.11955 0.43686 -0.32006 0.43686 -0.90076 c0 -0.46692 -0.15799 -0.71972 -0.56382 -0.90166 c-0.36882 -0.16531 -0.77152 -0.17865 -0.77532 -0.17865 l-9.7922 0 l0 2.1608 z M152.867 10.9512 l-13.59 0.000019531 l0 2.1863 l9.0642 0.03375 l-0.0086328 2.3478 l-9.0556 -0.03375 l0 2.1782 l13.59 0 l0 2.3477 l-15.938 0 l0 -11.407 l15.938 0 l0 2.3476 z M184.997 17.557 l1.162 -0.017422 l0.034786 2.3242 l-1.1621 0.017402 c-0.18088 0.002754 -0.38542 0.0058984 -0.6087 0.0058984 c-1.614 0 -4.2026 -0.16008 -5.8378 -1.7712 c-0.72798 -0.71726 -1.1865 -1.629 -1.3698 -2.72 l-4.2054 0 l-0.016602 4.4896 l-2.3246 -0.0086328 l0.037402 -10.127 l0 -1.1635 l0.0043164 0 l0 -0.0043164 l1.1612 0.0043164 l10.951 0 c1.4728 0 3.6638 0.90678 3.6638 3.4048 c0 2.4982 -2.0362 3.405 -3.4048 3.405 l-3.4826 0 c0.12543 0.4252 0.32842 0.77924 0.61734 1.064 c1.1685 1.151 3.608 1.1146 4.7804 1.0969 z M173.0314 13.0714 l10.041 -0.000019531 c0.10148 -0.0035352 0.40426 -0.041718 0.6538 -0.17971 c0.21608 -0.11955 0.43686 -0.32006 0.43686 -0.90076 c0 -0.46692 -0.15799 -0.71972 -0.56382 -0.90166 c-0.36882 -0.16531 -0.77152 -0.17865 -0.77532 -0.17865 l-9.7922 0 l0 2.1608 z M243.587 10.9512 l-13.59 0.000019531 l0 2.1863 l9.0642 0.03375 l-0.0086328 2.3478 l-9.0556 -0.03375 l0 2.1782 l13.59 0 l0 2.3477 l-15.938 0 l0 -11.407 l15.938 0 l0 2.3476 z M264.178 11.0046 c-0.21816 0.12059 -0.44118 0.32306 -0.44118 0.90966 c0 0.45724 0.14779 0.70718 0.52734 0.89108 c0.38386 0.18598 0.81196 0.19957 0.83354 0.2001 l8.5334 0.03336 c1.4828 0 3.6956 0.9158 3.6956 3.4388 s-2.0564 3.4388 -3.4388 3.4388 l-12.499 0 l0 -2.3477 l12.488 0 c0.1024 -0.0035352 0.40818 -0.04211 0.66022 -0.18152 c0.21828 -0.12072 0.44128 -0.32318 0.44128 -0.90964 c0 -0.45724 -0.14779 -0.70718 -0.52734 -0.89108 c-0.3827 -0.18547 -0.81038 -0.19947 -0.8343 -0.20012 l-8.5278 -0.03793 l0 0.0045703 c-1.4875 0 -3.7004 -0.9158 -3.7004 -3.4388 s2.0564 -3.4388 3.4388 -3.4388 l12.499 0 l0 2.3477 l-12.488 0 c-0.10229 0.0035352 -0.40834 0.04211 -0.6605 0.18152 z M330.74399999999997 8.475 c1.4873 0 3.7 0.91594 3.7 3.4388 s-2.0564 3.4388 -3.4388 3.4388 l-10.172 0 l-0.016738 4.5342 l-2.3476 -0.0087696 l0.037794 -10.227 l0 -1.1757 l0.0043164 0 l0 -0.0043164 l1.1738 0.0043164 l11.059 0 z M331.65599999999995 12.823599999999999 c0.21816 -0.12072 0.4413 -0.32304 0.44118 -0.90952 c0 -0.47164 -0.15957 -0.72696 -0.56948 -0.91072 c-0.3725 -0.16701 -0.77926 -0.18049 -0.78304 -0.18049 l-9.8895 0 l0 2.1822 l10.141 0 c0.1024 -0.0035352 0.40818 -0.04211 0.66022 -0.18152 z M367.18499999999995 9.649 c0.91776 0.9099 0.9102 2.226 0.89856 4.2182 c-0.00091796 0.14832 -0.0016992 0.302 -0.0023438 0.46118 c-0.0044532 1.1823 -0.0075976 2.0366 -0.13172 2.757 c-0.10568 0.6142 -0.34974 1.4995 -1.2436 2.0954 c-1.1321 0.75466 -2.8232 0.77168 -6.5282 0.8087 c-0.57862 0.0057618 -1.1122 0.010078 -1.6046 0.010078 c-2.9354 0 -4.411 -0.15537 -5.3538 -1.0922 c-0.98198 -0.9757 -0.97648 -2.4126 -0.96838 -4.5876 c0.0090234 -2.4268 0.014512 -3.8916 1.2447 -4.801 c1.0614 -0.7845 2.6028 -0.80516 5.9798 -0.85054 l0.67396 -0.0092774 c4.2088 -0.060156 5.9508 -0.085136 7.0354 0.99024 z M365.7509999999999 13.854199999999999 c0.006543 -1.1448 0.013457 -2.3288 -0.20864 -2.5488 c-0.27556 -0.27322 -1.5123 -0.33638 -3.1584 -0.33638 c-0.67736 0 -1.4242 0.010723 -2.2018 0.021836 l-0.67606 0.0092774 c-2.4194 0.032442 -4.1674 0.055976 -4.625 0.39406 c-0.2888 0.21346 -0.2935 1.4744 -0.29898 2.9346 c-0.0050976 1.3559 -0.0099414 2.6366 0.28016 2.9248 c0.4554 0.45254 2.9138 0.42782 5.2914 0.40428 c2.7302 -0.027206 4.7028 -0.046954 5.258 -0.4171 c0.32686 -0.2179 0.33104 -1.3516 0.33692 -2.9208 c0.00052734 -0.16074 0.0014453 -0.316 0.0023632 -0.46588 z M400.37299999999993 10.8272 c0.95568 0.96942 1.4718 2.2114 1.4534 3.497 c-0.02289 1.5915 -0.78998 3.0436 -2.16 4.0892 c-1.4271 1.089 -3.4354 1.6646 -5.8082 1.6646 c-4.5288 0 -6.808 -0.0667 -6.8304 -0.067344 l-1.1387 -0.03414 l0 -11.373 l7.9691 0 c3.5728 0 5.5148 1.2092 6.5148 2.2236 z M393.8583999999999 17.7304 c3.8486 0 5.5962 -1.7276 5.6208 -3.4396 c0.009414 -0.66168 -0.25962 -1.2893 -0.77796 -1.8153 c-0.9689 -0.9829 -2.6888 -1.5241 -4.843 -1.5241 l-5.6214 0 l0 6.737 c1.09 0.018965 2.963 0.041992 5.6214 0.041992 z M435.5869999999999 10.9512 l-13.59 0.000019531 l0 2.1863 l9.0642 0.03375 l-0.0086328 2.3478 l-9.0556 -0.03375 l0 2.1782 l13.59 0 l0 2.3477 l-15.938 0 l0 -11.407 l15.938 0 l0 2.3476 z M467.7169999999999 17.557 l1.162 -0.017422 l0.034786 2.3242 l-1.1621 0.017402 c-0.18088 0.002754 -0.38542 0.0058984 -0.6087 0.0058984 c-1.614 0 -4.2026 -0.16008 -5.8378 -1.7712 c-0.72798 -0.71726 -1.1865 -1.629 -1.3698 -2.72 l-4.2054 0 l-0.016602 4.4896 l-2.3246 -0.0086328 l0.037402 -10.127 l0 -1.1635 l0.0043164 0 l0 -0.0043164 l1.1612 0.0043164 l10.951 0 c1.4728 0 3.6638 0.90678 3.6638 3.4048 c0 2.4982 -2.0362 3.405 -3.4048 3.405 l-3.4826 0 c0.12543 0.4252 0.32842 0.77924 0.61734 1.064 c1.1685 1.151 3.608 1.1146 4.7804 1.0969 z M455.75139999999993 13.0714 l10.041 -0.000019531 c0.10148 -0.0035352 0.40426 -0.041718 0.6538 -0.17971 c0.21608 -0.11955 0.43686 -0.32006 0.43686 -0.90076 c0 -0.46692 -0.15799 -0.71972 -0.56382 -0.90166 c-0.36882 -0.16531 -0.77152 -0.17865 -0.77532 -0.17865 l-9.7922 0 l0 2.1608 z"></path></g></svg>